<svg width="1351" height="1080" viewBox="0 0 1351 1080" fill="none" xmlns="http://www.w3.org/2000/svg">
<path fill-rule="evenodd" clip-rule="evenodd" d="M284.185 -969.538L178.275 -799.713C72.364 -629.887 -101.5 -186.5 76.8389 20.7476C255.178 227.995 937.548 614.045 1192.76 922.422C1447.98 1230.8 1314 1565.24 1335.7 1889.25C1357.39 2213.27 1534.77 2526.86 1623.46 2683.65L1712.15 2840.44L2179.18 2809.17L2168.33 2647.16C2157.49 2485.16 2135.79 2161.14 2114.09 1837.13C2092.39 1513.11 2070.7 1189.1 2049 865.085C2027.3 541.071 2005.6 217.056 1983.91 -106.958C1962.21 -430.972 1940.51 -754.986 1929.66 -916.993L1918.81 -1079L284.185 -969.538Z" fill="#075985"/>
</svg>
