<svg width="64" height="57" viewBox="0 0 64 57" fill="none" xmlns="http://www.w3.org/2000/svg">
<path d="M28.1444 3.90743C28.8222 2.59375 28.3111 0.979491 27.0111 0.300387C25.7111 -0.378717 24.0889 0.133394 23.4111 1.43594L13.0667 21.3749H3.55556C1.58889 21.3749 0 22.9669 0 24.9374C0 26.9079 1.58889 28.4999 3.55556 28.4999L9.32222 51.6006C10.1111 54.7734 12.9556 57 16.2222 57H47.7778C51.0444 57 53.8889 54.7734 54.6778 51.6006L60.4444 28.4999C62.4111 28.4999 64 26.9079 64 24.9374C64 22.9669 62.4111 21.3749 60.4444 21.3749H50.9333L40.5889 1.43594C39.9111 0.133394 38.3 -0.378717 36.9889 0.300387C35.6778 0.979491 35.1778 2.59375 35.8556 3.90743L44.9222 21.3749H19.0778L28.1444 3.90743ZM21.3333 33.8437V44.5312C21.3333 45.5109 20.5333 46.3125 19.5556 46.3125C18.5778 46.3125 17.7778 45.5109 17.7778 44.5312V33.8437C17.7778 32.864 18.5778 32.0624 19.5556 32.0624C20.5333 32.0624 21.3333 32.864 21.3333 33.8437ZM32 32.0624C32.9778 32.0624 33.7778 32.864 33.7778 33.8437V44.5312C33.7778 45.5109 32.9778 46.3125 32 46.3125C31.0222 46.3125 30.2222 45.5109 30.2222 44.5312V33.8437C30.2222 32.864 31.0222 32.0624 32 32.0624ZM46.2222 33.8437V44.5312C46.2222 45.5109 45.4222 46.3125 44.4444 46.3125C43.4667 46.3125 42.6667 45.5109 42.6667 44.5312V33.8437C42.6667 32.864 43.4667 32.0624 44.4444 32.0624C45.4222 32.0624 46.2222 32.864 46.2222 33.8437Z" fill="#575757"/>
</svg>
